<?xml version="1.0" encoding="iso-8859-1"?>
<!-- Generator: Adobe Illustrator 17.1.0, SVG Export Plug-In . SVG Version: 6.00 Build 0)  -->
<!DOCTYPE svg PUBLIC "-//W3C//DTD SVG 1.1//EN" "http://www.w3.org/Graphics/SVG/1.1/DTD/svg11.dtd">
<svg version="1.1" id="Capa_1" xmlns="http://www.w3.org/2000/svg" xmlns:xlink="http://www.w3.org/1999/xlink" x="0px" y="0px"
	 viewBox="0 0 400.066 400.066" style="enable-background:new 0 0 400.066 400.066;" xml:space="preserve">
<path d="M319.776,175.379c-1,4.116-4.683,6.876-8.738,6.876c-0.704,0-1.418-0.083-2.133-0.256
	c-22.998-5.589-64.715-9.061-108.872-9.061c-44.156,0-85.874,3.472-108.874,9.061c-4.829,1.173-9.697-1.79-10.871-6.621
	c-1.173-4.83,1.791-9.697,6.621-10.871c24.66-5.992,66.949-9.57,113.124-9.57c46.176,0,88.465,3.578,113.123,9.57
	C317.986,165.682,320.95,170.549,319.776,175.379z M379.605,187.581c-1.504,4.737-6.566,7.358-11.303,5.852l-12.801-4.068
	c-1.423,35.613-3.463,71.438-6.101,107.135c0.763-0.124,1.554-0.151,2.362-0.069c4.945,0.505,8.544,4.922,8.04,9.867
	c-1.838,18.014-3.875,35.943-6.052,53.29c-0.619,4.932-5.12,8.43-10.051,7.809c-0.816-0.102-1.592-0.311-2.317-0.61
	c-2.623,7.016-6.569,13.38-11.632,18.633c-9.104,9.446-21.259,14.647-34.224,14.647H104.541c-20.933,0-38.632-13.654-46.009-34.005
	c-1.088,0.693-2.343,1.163-3.709,1.334c-4.935,0.621-9.432-2.875-10.053-7.806c-2.158-17.158-4.195-35.088-6.053-53.292
	c-0.504-4.945,3.095-9.363,8.04-9.868c1.087-0.112,2.147-0.023,3.146,0.232c-3.008-34.778-5.432-70.467-7.244-106.692l-10.894,3.462
	c-4.739,1.504-9.798-1.115-11.303-5.852c-1.505-4.737,1.115-9.798,5.852-11.303l16.802-5.339l0.981-8.728
	c-1.215,0.402-2.533,0.549-3.888,0.389c-4.936-0.588-8.46-5.065-7.873-10.001c1.919-16.123,4.055-32.215,6.346-47.83
	c0.722-4.918,5.296-8.317,10.211-7.598c0.875,0.128,1.702,0.379,2.467,0.731c5.435-44.134,13.752-67.03,29.1-80.767
	C97.239,2.118,120.713,0.561,152.043,0.001C152.097,0,152.15,0,152.204,0h95.656c0.054,0,0.107,0,0.161,0.001
	c1.798,0.032,3.568,0.067,5.314,0.108c10.345,0.24,20.097,0.674,29.068,1.904c12.837,1.751,23.75,5.083,32.89,11.657
	c3.048,2.183,5.842,4.684,8.406,7.535c12.773,14.098,20.077,36.658,25.008,76.698c0.764-0.353,1.591-0.603,2.466-0.731
	c4.921-0.727,9.49,2.679,10.212,7.597c2.28,15.521,4.416,31.613,6.348,47.83c0.588,4.936-2.937,9.414-7.872,10.001
	c-1.356,0.162-2.676,0.013-3.89-0.389l0.314,2.793c0.049,0.431,0.066,0.865,0.052,1.298c-0.047,1.463-0.096,2.931-0.146,4.395
	l17.563,5.581C378.49,177.783,381.11,182.843,379.605,187.581z M258.984,18.281c0.602,6.003,1.23,12.05,1.878,18.071
	c0.366,3.394,1.101,6.658,2.194,9.755h55.301c-3.274-7.11-7.114-12.376-11.678-16.292C296.445,21.314,281.786,19.072,258.984,18.281
	z M81.708,46.108h55.436c1.057-3.064,1.743-6.28,2.046-9.611c0.542-5.912,1.075-11.931,1.612-18.207
	c-21.894,0.767-36.246,2.882-46.383,10.672C89.399,32.956,85.226,38.468,81.708,46.108z M338.325,166.368l-6.783-60.318
	c-1.925-17.125-4.2-30.884-7.035-41.942h-67.361c-3.383,0-6.48-1.897-8.018-4.911c-3.289-6.448-5.362-13.485-6.162-20.917
	c-0.728-6.761-1.431-13.552-2.1-20.279h-81.975c-0.593,6.975-1.179,13.62-1.777,20.137c-0.679,7.442-2.7,14.523-6.005,21.041
	c-1.533,3.024-4.636,4.93-8.027,4.93H75.559c-2.835,11.058-5.109,24.817-7.034,41.942L60.2,180.086
	c2.75,58.403,7.1,115.482,12.926,169.655c1.674,15.569,12.219,32.325,31.415,32.325h190.985c18.679,0,29.935-16.19,31.4-32.184
	C332.497,289.021,336.331,227.283,338.325,166.368z M302.907,329.573c-21.718,5.279-61.137,8.558-102.874,8.558
	s-81.156-3.279-102.874-8.558c-4.826-1.174-9.697,1.79-10.871,6.619c-1.174,4.83,1.79,9.697,6.62,10.871
	c23.359,5.678,63.406,9.068,107.125,9.068s83.766-3.39,107.125-9.068c4.83-1.174,7.794-6.041,6.62-10.871
	C312.604,331.363,307.738,328.398,302.907,329.573z"/>
<g>
</g>
<g>
</g>
<g>
</g>
<g>
</g>
<g>
</g>
<g>
</g>
<g>
</g>
<g>
</g>
<g>
</g>
<g>
</g>
<g>
</g>
<g>
</g>
<g>
</g>
<g>
</g>
<g>
</g>
</svg>
